<svg xmlns="http://www.w3.org/2000/svg" viewBox="0 0 307.68 870.97"><defs><style>.cls-1{fill:#cbcccb;}.cls-2{fill:#e2e4e4;}.cls-3{fill:#cacbcb;}</style></defs><title>skeleton-mobile</title><g id="Layer_2" data-name="Layer 2"><g id="Layer_1-2" data-name="Layer 1"><rect class="cls-1" width="300" height="36.04"/><rect class="cls-1" y="60.82" width="300" height="36.04"/><rect class="cls-1" y="126.14" width="150" height="36.04"/><rect class="cls-2" y="236.77" width="273.49" height="25"/><rect class="cls-2" y="346.77" width="170.93" height="25"/><rect class="cls-2" y="291.77" width="307.68" height="25"/><rect class="cls-2" y="613.69" width="170.93" height="25"/><rect class="cls-2" y="448.69" width="256.4" height="25"/><rect class="cls-2" y="503.69" width="307.68" height="25"/><rect class="cls-2" y="558.69" width="307.68" height="25"/><rect class="cls-2" x="69.31" y="716.58" width="181.53" height="25"/><rect class="cls-2" x="69.31" y="778.52" width="193.36" height="25"/><rect class="cls-2" x="69.31" y="840.47" width="226.25" height="25"/><polygon class="cls-3" points="31.18 729.08 0 711.08 0 747.08 31.18 729.08"/><polygon class="cls-3" points="31.18 791.02 0 773.02 0 809.02 31.18 791.02"/><polygon class="cls-3" points="31.18 852.97 0 834.97 0 870.97 31.18 852.97"/></g></g></svg>