<svg xmlns="http://www.w3.org/2000/svg" viewBox="0 0 675.14 846.91"><defs><style>.cls-1{fill:#cbcccb;}.cls-2{fill:#e2e4e4;}.cls-3{fill:#cacbcb;}</style></defs><title>skeleton-desktop</title><g id="Layer_2" data-name="Layer 2"><g id="Layer_1-2" data-name="Layer 1"><rect class="cls-1" y="64.2" width="350" height="36.04"/><rect class="cls-1" width="513.56" height="36.04"/><rect class="cls-2" y="193.97" width="600.12" height="25"/><rect class="cls-2" y="303.97" width="375.08" height="25"/><rect class="cls-2" y="248.97" width="675.14" height="25"/><rect class="cls-2" y="570.89" width="375.08" height="25"/><rect class="cls-2" y="405.89" width="562.61" height="25"/><rect class="cls-2" y="460.89" width="675.14" height="25"/><rect class="cls-2" y="515.89" width="675.14" height="25"/><rect class="cls-2" x="69.31" y="692.53" width="515.48" height="25"/><rect class="cls-2" x="69.31" y="754.47" width="434.95" height="25"/><rect class="cls-2" x="69.31" y="816.41" width="348.97" height="25"/><polygon class="cls-3" points="31.37 705.02 0.19 687.02 0.19 723.02 31.37 705.02"/><polygon class="cls-3" points="31.37 766.97 0.19 748.97 0.19 784.97 31.37 766.97"/><polygon class="cls-3" points="31.37 828.91 0.19 810.91 0.19 846.91 31.37 828.91"/></g></g></svg>